# xmcd
#
# Track frame offsets:
#	150
#	12280
#	24594
#	36953
#	53338
#	65979
#	75546
#	91624
#	112035
#	127805
#	145285
#	159241
#	174271
#	190490
#	204293
#	216162
#	228196
#	239895
#	259670
#	273544
#
# Disc length: 3787 seconds
#
# Revision: 1
# Processed by: cddbd v1.5.2PL0 Copyright (c) Steve Scherf et al.
# Submitted via: audiograbber 1.83.01
#
DISCID=100ec914
DTITLE=Various Artist - 100 Hits The Best Country Album CD1
DYEAR=2018
DGENRE=Country
TTITLE0=Dolly Parton - Jolene
TTITLE1=Tammy Wynette - Stand By Your Man
TTITLE2=Charlie Rich - The Most Beautiful Girl
TTITLE3=The Charlie Daniels Band - The Devil Went Down To Georgia
TTITLE4=Johnny Cash - Folsom Prison Blues [Live]
TTITLE5=Elvis Presley - Snowbird
TTITLE6=Willie Nelson - Always On My Mind
TTITLE7=Janis Joplin - Me And Bobby McGee
TTITLE8=Kris Kristofferson - Why Me
TTITLE9=Dr. Hook and The Medicine Show - Sylvia's Mother
TTITLE10=The Highwaymen - Highwayman
TTITLE11=Roseanne Cash - Seven Year Ache
TTITLE12=Don Williams - I've Been Loved By The Best
TTITLE13=Merle Haggard - That's The Way Love Goes
TTITLE14=Hoyt Axton - A Rusty Old Halo
TTITLE15=Johnny Paycheck - Take This Job And Shove It
TTITLE16=Don Gibson - Sea Of Heartbreak
TTITLE17=Marty Robbins - El Paso
TTITLE18=Jimmy Dean - Big Bad John
TTITLE19=Jim Reeves - He'll Have To Go
EXTD=
EXTT0=
EXTT1=
EXTT2=
EXTT3=
EXTT4=
EXTT5=
EXTT6=
EXTT7=
EXTT8=
EXTT9=
EXTT10=
EXTT11=
EXTT12=
EXTT13=
EXTT14=
EXTT15=
EXTT16=
EXTT17=
EXTT18=
EXTT19=
PLAYORDER=
